<mxfile host="app.diagrams.net" modified="2021-04-16T10:00:18.735Z" agent="5.0 (Windows NT 10.0; Win64; x64) AppleWebKit/537.36 (KHTML, like Gecko) Chrome/89.0.4389.128 Safari/537.36" etag="KBTmYwEDiJHxQykk_0xS" version="14.5.1" type="github">
  <diagram id="C5RBs43oDa-KdzZeNtuy" name="Page-1">
    <mxGraphModel dx="1422" dy="794" grid="1" gridSize="10" guides="1" tooltips="1" connect="1" arrows="1" fold="1" page="1" pageScale="1" pageWidth="827" pageHeight="1169" math="0" shadow="0">
      <root>
        <mxCell id="WIyWlLk6GJQsqaUBKTNV-0" />
        <mxCell id="WIyWlLk6GJQsqaUBKTNV-1" parent="WIyWlLk6GJQsqaUBKTNV-0" />
        <mxCell id="f2Ok3ZKbJBMPjQWThTmN-68" value="" style="rounded=0;whiteSpace=wrap;html=1;strokeWidth=1;fillColor=#f5f5f5;strokeColor=#666666;fontColor=#333333;" parent="WIyWlLk6GJQsqaUBKTNV-1" vertex="1">
          <mxGeometry x="40" y="835" width="645" height="285" as="geometry" />
        </mxCell>
        <mxCell id="f2Ok3ZKbJBMPjQWThTmN-59" value="" style="rounded=0;whiteSpace=wrap;html=1;strokeWidth=1;fillColor=#f5f5f5;strokeColor=#666666;fontColor=#333333;" parent="WIyWlLk6GJQsqaUBKTNV-1" vertex="1">
          <mxGeometry x="40" y="357.88" width="640" height="150" as="geometry" />
        </mxCell>
        <mxCell id="f2Ok3ZKbJBMPjQWThTmN-48" value="" style="rounded=0;whiteSpace=wrap;html=1;strokeWidth=1;fillColor=#f5f5f5;strokeColor=#666666;fontColor=#333333;" parent="WIyWlLk6GJQsqaUBKTNV-1" vertex="1">
          <mxGeometry x="40" y="148.88" width="640" height="150" as="geometry" />
        </mxCell>
        <mxCell id="f2Ok3ZKbJBMPjQWThTmN-50" style="edgeStyle=orthogonalEdgeStyle;rounded=0;orthogonalLoop=1;jettySize=auto;html=1;" parent="WIyWlLk6GJQsqaUBKTNV-1" source="f2Ok3ZKbJBMPjQWThTmN-22" target="f2Ok3ZKbJBMPjQWThTmN-28" edge="1">
          <mxGeometry relative="1" as="geometry" />
        </mxCell>
        <mxCell id="f2Ok3ZKbJBMPjQWThTmN-22" value="" style="pointerEvents=1;shadow=0;dashed=0;html=1;strokeColor=none;labelPosition=center;verticalLabelPosition=bottom;verticalAlign=top;align=center;fillColor=#515151;shape=mxgraph.mscae.system_center.roles" parent="WIyWlLk6GJQsqaUBKTNV-1" vertex="1">
          <mxGeometry x="376" y="162" width="75" height="101" as="geometry" />
        </mxCell>
        <mxCell id="f2Ok3ZKbJBMPjQWThTmN-49" style="edgeStyle=orthogonalEdgeStyle;rounded=0;orthogonalLoop=1;jettySize=auto;html=1;" parent="WIyWlLk6GJQsqaUBKTNV-1" source="f2Ok3ZKbJBMPjQWThTmN-26" target="f2Ok3ZKbJBMPjQWThTmN-22" edge="1">
          <mxGeometry relative="1" as="geometry" />
        </mxCell>
        <mxCell id="f2Ok3ZKbJBMPjQWThTmN-26" value="" style="pointerEvents=1;shadow=0;dashed=0;html=1;strokeColor=none;fillColor=#434445;aspect=fixed;labelPosition=center;verticalLabelPosition=bottom;verticalAlign=top;align=center;outlineConnect=0;shape=mxgraph.vvd.nsx_dashboard;" parent="WIyWlLk6GJQsqaUBKTNV-1" vertex="1">
          <mxGeometry x="143.23" y="167.5" width="96.77" height="90" as="geometry" />
        </mxCell>
        <mxCell id="f2Ok3ZKbJBMPjQWThTmN-53" style="edgeStyle=orthogonalEdgeStyle;rounded=0;orthogonalLoop=1;jettySize=auto;html=1;entryX=0;entryY=0.5;entryDx=0;entryDy=0;entryPerimeter=0;" parent="WIyWlLk6GJQsqaUBKTNV-1" source="f2Ok3ZKbJBMPjQWThTmN-27" edge="1">
          <mxGeometry relative="1" as="geometry">
            <mxPoint x="376" y="430.5" as="targetPoint" />
          </mxGeometry>
        </mxCell>
        <mxCell id="f2Ok3ZKbJBMPjQWThTmN-27" value="" style="pointerEvents=1;shadow=0;dashed=0;html=1;strokeColor=none;labelPosition=center;verticalLabelPosition=bottom;verticalAlign=top;align=center;fillColor=#505050;shape=mxgraph.mscae.intune.dashboard" parent="WIyWlLk6GJQsqaUBKTNV-1" vertex="1">
          <mxGeometry x="143.23" y="395.5" width="98.5" height="70" as="geometry" />
        </mxCell>
        <mxCell id="f2Ok3ZKbJBMPjQWThTmN-28" value="" style="outlineConnect=0;dashed=0;verticalLabelPosition=bottom;verticalAlign=top;align=center;html=1;shape=mxgraph.aws3.generic_database;fillColor=#7D7C7C;gradientColor=none;" parent="WIyWlLk6GJQsqaUBKTNV-1" vertex="1">
          <mxGeometry x="580" y="175.13" width="50" height="74.75" as="geometry" />
        </mxCell>
        <mxCell id="f2Ok3ZKbJBMPjQWThTmN-65" style="edgeStyle=orthogonalEdgeStyle;rounded=0;orthogonalLoop=1;jettySize=auto;html=1;" parent="WIyWlLk6GJQsqaUBKTNV-1" source="f2Ok3ZKbJBMPjQWThTmN-46" target="f2Ok3ZKbJBMPjQWThTmN-64" edge="1">
          <mxGeometry relative="1" as="geometry" />
        </mxCell>
        <mxCell id="f2Ok3ZKbJBMPjQWThTmN-46" value="&lt;font style=&quot;font-size: 16px&quot;&gt;Restservice&lt;/font&gt;" style="rounded=1;whiteSpace=wrap;html=1;strokeColor=#4D4D4D;strokeWidth=10;fillColor=#BCDFFF;" parent="WIyWlLk6GJQsqaUBKTNV-1" vertex="1">
          <mxGeometry x="369.75" y="880" width="95.25" height="75" as="geometry" />
        </mxCell>
        <mxCell id="f2Ok3ZKbJBMPjQWThTmN-51" value="&lt;font style=&quot;font-size: 16px&quot;&gt;Altsystem&lt;/font&gt;" style="text;html=1;align=center;verticalAlign=middle;resizable=0;points=[];autosize=1;" parent="WIyWlLk6GJQsqaUBKTNV-1" vertex="1">
          <mxGeometry x="110" y="110" width="80" height="20" as="geometry" />
        </mxCell>
        <mxCell id="f2Ok3ZKbJBMPjQWThTmN-58" style="edgeStyle=orthogonalEdgeStyle;rounded=0;orthogonalLoop=1;jettySize=auto;html=1;" parent="WIyWlLk6GJQsqaUBKTNV-1" source="f2Ok3ZKbJBMPjQWThTmN-55" target="f2Ok3ZKbJBMPjQWThTmN-56" edge="1">
          <mxGeometry relative="1" as="geometry" />
        </mxCell>
        <mxCell id="f2Ok3ZKbJBMPjQWThTmN-55" value="" style="outlineConnect=0;dashed=0;verticalLabelPosition=bottom;verticalAlign=top;align=center;html=1;shape=mxgraph.aws3.generic_database;fillColor=#7D7C7C;gradientColor=none;" parent="WIyWlLk6GJQsqaUBKTNV-1" vertex="1">
          <mxGeometry x="376" y="395.5" width="50" height="74.75" as="geometry" />
        </mxCell>
        <mxCell id="f2Ok3ZKbJBMPjQWThTmN-56" value="" style="pointerEvents=1;shadow=0;dashed=0;html=1;strokeColor=none;labelPosition=center;verticalLabelPosition=bottom;verticalAlign=top;align=center;fillColor=#515151;shape=mxgraph.mscae.system_center.roles" parent="WIyWlLk6GJQsqaUBKTNV-1" vertex="1">
          <mxGeometry x="580" y="382.38" width="75" height="101" as="geometry" />
        </mxCell>
        <mxCell id="f2Ok3ZKbJBMPjQWThTmN-60" value="&lt;font style=&quot;font-size: 16px&quot;&gt;Erster Migrationsschritt&lt;/font&gt;" style="text;html=1;align=center;verticalAlign=middle;resizable=0;points=[];autosize=1;" parent="WIyWlLk6GJQsqaUBKTNV-1" vertex="1">
          <mxGeometry x="110" y="320" width="180" height="20" as="geometry" />
        </mxCell>
        <mxCell id="f2Ok3ZKbJBMPjQWThTmN-62" style="edgeStyle=orthogonalEdgeStyle;rounded=0;orthogonalLoop=1;jettySize=auto;html=1;" parent="WIyWlLk6GJQsqaUBKTNV-1" source="f2Ok3ZKbJBMPjQWThTmN-61" edge="1">
          <mxGeometry relative="1" as="geometry">
            <mxPoint x="365" y="920" as="targetPoint" />
          </mxGeometry>
        </mxCell>
        <mxCell id="f2Ok3ZKbJBMPjQWThTmN-67" style="edgeStyle=orthogonalEdgeStyle;rounded=0;orthogonalLoop=1;jettySize=auto;html=1;" parent="WIyWlLk6GJQsqaUBKTNV-1" source="pKcZEVfAh0HOdh0qeipE-7" target="f2Ok3ZKbJBMPjQWThTmN-63" edge="1">
          <mxGeometry relative="1" as="geometry">
            <Array as="points">
              <mxPoint x="198" y="1062" />
            </Array>
          </mxGeometry>
        </mxCell>
        <mxCell id="f2Ok3ZKbJBMPjQWThTmN-61" value="" style="pointerEvents=1;shadow=0;dashed=0;html=1;strokeColor=none;labelPosition=center;verticalLabelPosition=bottom;verticalAlign=top;align=center;fillColor=#505050;shape=mxgraph.mscae.intune.dashboard" parent="WIyWlLk6GJQsqaUBKTNV-1" vertex="1">
          <mxGeometry x="148.23" y="885" width="98.5" height="70" as="geometry" />
        </mxCell>
        <mxCell id="f2Ok3ZKbJBMPjQWThTmN-63" value="" style="outlineConnect=0;dashed=0;verticalLabelPosition=bottom;verticalAlign=top;align=center;html=1;shape=mxgraph.aws3.generic_database;fillColor=#7D7C7C;gradientColor=none;" parent="WIyWlLk6GJQsqaUBKTNV-1" vertex="1">
          <mxGeometry x="381" y="1025" width="50" height="74.75" as="geometry" />
        </mxCell>
        <mxCell id="f2Ok3ZKbJBMPjQWThTmN-64" value="" style="pointerEvents=1;shadow=0;dashed=0;html=1;strokeColor=#2D7600;labelPosition=center;verticalLabelPosition=bottom;verticalAlign=top;align=center;fillColor=#60a917;shape=mxgraph.mscae.system_center.roles;fontColor=#ffffff;" parent="WIyWlLk6GJQsqaUBKTNV-1" vertex="1">
          <mxGeometry x="585" y="867" width="75" height="101" as="geometry" />
        </mxCell>
        <mxCell id="f2Ok3ZKbJBMPjQWThTmN-69" value="&lt;font style=&quot;font-size: 16px&quot;&gt;Zweiter Migrationsschritt&lt;/font&gt;" style="text;html=1;align=center;verticalAlign=middle;resizable=0;points=[];autosize=1;" parent="WIyWlLk6GJQsqaUBKTNV-1" vertex="1">
          <mxGeometry x="110" y="790" width="190" height="20" as="geometry" />
        </mxCell>
        <mxCell id="pKcZEVfAh0HOdh0qeipE-0" value="Jasper Bericht" style="text;html=1;align=center;verticalAlign=middle;resizable=0;points=[];autosize=1;" vertex="1" parent="WIyWlLk6GJQsqaUBKTNV-1">
          <mxGeometry x="146.62" y="270" width="90" height="20" as="geometry" />
        </mxCell>
        <mxCell id="pKcZEVfAh0HOdh0qeipE-1" value="Backend Altsystem" style="text;html=1;align=center;verticalAlign=middle;resizable=0;points=[];autosize=1;" vertex="1" parent="WIyWlLk6GJQsqaUBKTNV-1">
          <mxGeometry x="341" y="270" width="120" height="20" as="geometry" />
        </mxCell>
        <mxCell id="pKcZEVfAh0HOdh0qeipE-2" value="Datenbank des Altsystems" style="text;html=1;align=center;verticalAlign=middle;resizable=0;points=[];autosize=1;" vertex="1" parent="WIyWlLk6GJQsqaUBKTNV-1">
          <mxGeometry x="520" y="270" width="160" height="20" as="geometry" />
        </mxCell>
        <mxCell id="pKcZEVfAh0HOdh0qeipE-3" value="Grafana Dashboard" style="text;html=1;align=center;verticalAlign=middle;resizable=0;points=[];autosize=1;" vertex="1" parent="WIyWlLk6GJQsqaUBKTNV-1">
          <mxGeometry x="131.62" y="480" width="120" height="20" as="geometry" />
        </mxCell>
        <mxCell id="pKcZEVfAh0HOdh0qeipE-4" value="Datenbank des Altsystems" style="text;html=1;align=center;verticalAlign=middle;resizable=0;points=[];autosize=1;" vertex="1" parent="WIyWlLk6GJQsqaUBKTNV-1">
          <mxGeometry x="321" y="480" width="160" height="20" as="geometry" />
        </mxCell>
        <mxCell id="pKcZEVfAh0HOdh0qeipE-5" value="Backend Altsystem" style="text;html=1;align=center;verticalAlign=middle;resizable=0;points=[];autosize=1;" vertex="1" parent="WIyWlLk6GJQsqaUBKTNV-1">
          <mxGeometry x="545" y="480" width="120" height="20" as="geometry" />
        </mxCell>
        <mxCell id="pKcZEVfAh0HOdh0qeipE-6" value="Datenbank des Altsystems" style="text;html=1;align=center;verticalAlign=middle;resizable=0;points=[];autosize=1;" vertex="1" parent="WIyWlLk6GJQsqaUBKTNV-1">
          <mxGeometry x="334" y="1100" width="160" height="20" as="geometry" />
        </mxCell>
        <mxCell id="pKcZEVfAh0HOdh0qeipE-7" value="Grafana Dashboard" style="text;html=1;align=center;verticalAlign=middle;resizable=0;points=[];autosize=1;" vertex="1" parent="WIyWlLk6GJQsqaUBKTNV-1">
          <mxGeometry x="143.23000000000002" y="955" width="120" height="20" as="geometry" />
        </mxCell>
        <mxCell id="pKcZEVfAh0HOdh0qeipE-9" value="Backend Neusystem" style="text;html=1;align=center;verticalAlign=middle;resizable=0;points=[];autosize=1;" vertex="1" parent="WIyWlLk6GJQsqaUBKTNV-1">
          <mxGeometry x="540" y="967.5" width="130" height="20" as="geometry" />
        </mxCell>
        <mxCell id="pKcZEVfAh0HOdh0qeipE-12" style="edgeStyle=orthogonalEdgeStyle;rounded=0;orthogonalLoop=1;jettySize=auto;html=1;" edge="1" parent="WIyWlLk6GJQsqaUBKTNV-1" source="pKcZEVfAh0HOdh0qeipE-10" target="f2Ok3ZKbJBMPjQWThTmN-26">
          <mxGeometry relative="1" as="geometry" />
        </mxCell>
        <mxCell id="pKcZEVfAh0HOdh0qeipE-10" value="Bediener" style="shape=umlActor;verticalLabelPosition=bottom;verticalAlign=top;html=1;outlineConnect=0;" vertex="1" parent="WIyWlLk6GJQsqaUBKTNV-1">
          <mxGeometry x="60" y="182.51" width="30" height="60" as="geometry" />
        </mxCell>
        <mxCell id="pKcZEVfAh0HOdh0qeipE-17" style="edgeStyle=orthogonalEdgeStyle;rounded=0;orthogonalLoop=1;jettySize=auto;html=1;entryX=0.008;entryY=0.421;entryDx=0;entryDy=0;entryPerimeter=0;" edge="1" parent="WIyWlLk6GJQsqaUBKTNV-1" source="pKcZEVfAh0HOdh0qeipE-13" target="f2Ok3ZKbJBMPjQWThTmN-27">
          <mxGeometry relative="1" as="geometry" />
        </mxCell>
        <mxCell id="pKcZEVfAh0HOdh0qeipE-13" value="Bediener" style="shape=umlActor;verticalLabelPosition=bottom;verticalAlign=top;html=1;outlineConnect=0;" vertex="1" parent="WIyWlLk6GJQsqaUBKTNV-1">
          <mxGeometry x="60" y="395.5" width="30" height="60" as="geometry" />
        </mxCell>
        <mxCell id="pKcZEVfAh0HOdh0qeipE-24" style="edgeStyle=orthogonalEdgeStyle;rounded=0;orthogonalLoop=1;jettySize=auto;html=1;entryX=0;entryY=0.5;entryDx=0;entryDy=0;entryPerimeter=0;" edge="1" parent="WIyWlLk6GJQsqaUBKTNV-1" source="pKcZEVfAh0HOdh0qeipE-18" target="f2Ok3ZKbJBMPjQWThTmN-61">
          <mxGeometry relative="1" as="geometry" />
        </mxCell>
        <mxCell id="pKcZEVfAh0HOdh0qeipE-18" value="Bediener" style="shape=umlActor;verticalLabelPosition=bottom;verticalAlign=top;html=1;outlineConnect=0;" vertex="1" parent="WIyWlLk6GJQsqaUBKTNV-1">
          <mxGeometry x="60" y="890" width="30" height="60" as="geometry" />
        </mxCell>
      </root>
    </mxGraphModel>
  </diagram>
</mxfile>
